# xmcd
# Track frame offsets:
# 182
# 17550
# 31667
# 50732
# 68900
# 89367
# 104545
# 119762
# 137215
# 150785
# 163425
# 178497
# 194585
# 214967
# 226965
# 245575
#
# Disc length: 3493 seconds
# Revision: 0
# Processed by: cddbd v1.5.2PL0 Copyright (c) Steve Scherf et al.
# Submitted via: VisiTrax 2.11.2.271 - For more info visit www.synapsa.com
#
DISCID=ed0da310
DTITLE=Various Artist - MCA Country Compilation
DYEAR=1995
DGENRE=Country
TTITLE0=The Mavericks - All You Ever Do Is Bring Me Down
TTITLE1=The Mavericks - True Love Ways (Not Fade Away)
TTITLE2=Reba McEntire - Ring On Her Ringer
TTITLE3=Reba McEntire - By The Time I Get To Phoenix
TTITLE4=Reba McEntire - On My Own
TTITLE5=Vince Gill - The Heart Won't Lie (With Reba McEntire)
TTITLE6=Trisha Yearwood - Thinkin' About You
TTITLE7=Trisha Yearwood - Bartender Blues
TTITLE8=Trisha Yearwood - I Wanna Go Too Far
TTITLE9=Todd Snider and Joe Ely - Oh Boy
TTITLE10=George Strait - Check Yes Or No
TTITLE11=Mark Chesnutt - Trouble
TTITLE12=Frazier River - Everything About You
TTITLE13=Frazier River - People Make Money
TTITLE14=Bobbie Cryner - You'd Think He'd Know Me Better
TTITLE15=Bobbie Cryner - I Just Can't Stand To Be Unhappy
EXTD=
EXTT0=
EXTT1=
EXTT2=
EXTT3=
EXTT4=
EXTT5=
EXTT6=
EXTT7=
EXTT8=
EXTT9=
EXTT10=
EXTT11=
EXTT12=
EXTT13=
EXTT14=
EXTT15=
PLAYORDER=
